<svg id="圖層_1" data-name="圖層 1" xmlns="http://www.w3.org/2000/svg" xmlns:xlink="http://www.w3.org/1999/xlink" viewBox="0 0 1920 1080">
  <defs>
    <style>
      .cls-1 {
        opacity: 0.1;
        fill: url(#未命名漸層_5);
      }

      .cls-2, .cls-3 {
        fill: #64757d;
      }

      .cls-3 {
        opacity: 0.7;
      }

      .cls-4 {
        fill: #94a3ac;
      }

      .cls-5 {
        fill: #009d9b;
      }

      .cls-6, .cls-7 {
        opacity: 0.3;
      }

      .cls-6 {
        fill: url(#未命名漸層_72);
      }

      .cls-7 {
        fill: url(#未命名漸層_5-2);
      }
    </style>
    <linearGradient id="未命名漸層_5" data-name="未命名漸層 5" x1="1710.25" y1="1290.75" x2="209.75" y2="-209.75" gradientUnits="userSpaceOnUse">
      <stop offset="0" stop-color="#db2672"/>
      <stop offset="1" stop-color="#ec8e26"/>
    </linearGradient>
    <linearGradient id="未命名漸層_72" data-name="未命名漸層 72" x1="1563.73" y1="236.74" x2="1674.09" y2="347.1" gradientUnits="userSpaceOnUse">
      <stop offset="0" stop-color="#009fe8"/>
      <stop offset="1" stop-color="#009d9b"/>
    </linearGradient>
    <linearGradient id="未命名漸層_5-2" x1="361.09" y1="791.1" x2="250.73" y2="680.74" xlink:href="#未命名漸層_5"/>
  </defs>
  <title>App_landing_page</title>
  <rect class="cls-1" width="1920" height="1081"/>
  <polygon class="cls-2" points="1919.5 902.5 803.5 1080.5 1919.5 1080.5 1919.5 902.5"/>
  <polygon class="cls-3" points="0 873 1292.85 1080 0 1081 0 873"/>
  <g>
    <path class="cls-4" d="M1662.27,1025.12a10.47,10.47,0,0,1-2.93,3.65,13.17,13.17,0,0,1-4.48,2.27,19.93,19.93,0,0,1-5.7.77,23.65,23.65,0,0,1-7.81-1.16,16,16,0,0,1-6.14-4l4-3.93a11.7,11.7,0,0,0,4.6,3,17.46,17.46,0,0,0,5.48.8,10,10,0,0,0,6-1.58,5.93,5.93,0,0,0,.58-8.55,5.08,5.08,0,0,0-1.66-1.05,14.55,14.55,0,0,0-2.66-.61l-4.65-.66a13.28,13.28,0,0,1-7.47-3.16,9.84,9.84,0,0,1-2.88-7.53,11.75,11.75,0,0,1,.91-4.68,10.62,10.62,0,0,1,2.6-3.68,11.48,11.48,0,0,1,4.12-2.38,17.11,17.11,0,0,1,5.54-.83,19.87,19.87,0,0,1,6.81,1.05,16,16,0,0,1,5.43,3.43l-3.82,3.76a9.65,9.65,0,0,0-4-2.41,16.12,16.12,0,0,0-4.62-.64,7.51,7.51,0,0,0-5.34,1.74,5.78,5.78,0,0,0-1.85,4.4,5.44,5.44,0,0,0,.36,2,4.42,4.42,0,0,0,1.13,1.63,8.43,8.43,0,0,0,4.43,1.83l4.48.66a20.11,20.11,0,0,1,4.43,1.13,10.74,10.74,0,0,1,2.93,1.8,9.06,9.06,0,0,1,2.41,3.49,12.52,12.52,0,0,1,.8,4.6A11,11,0,0,1,1662.27,1025.12Z"/>
    <path class="cls-4" d="M1670.33,1031.49V992.07h6v39.42Z"/>
    <path class="cls-4" d="M1699.54,997.44v34h-6v-34h-10.85v-5.37h27.68v5.37Z"/>
    <path class="cls-4" d="M1741.61,1024.9a13.17,13.17,0,0,1-3.1,3.82,12.69,12.69,0,0,1-4.21,2.32,15.93,15.93,0,0,1-5,.77,14.72,14.72,0,0,1-5.7-1.08,14.22,14.22,0,0,1-4.65-3.13,11.24,11.24,0,0,1-2.21-3,14,14,0,0,1-1.13-3.49,25.34,25.34,0,0,1-.42-4.18q-.06-2.3-.06-5.12t.06-5.12a25.37,25.37,0,0,1,.42-4.18,14,14,0,0,1,1.13-3.49,11.26,11.26,0,0,1,2.21-3,14.26,14.26,0,0,1,4.65-3.13,14.74,14.74,0,0,1,5.7-1.08,14.06,14.06,0,0,1,9.25,3.1,14.48,14.48,0,0,1,4.82,9h-6.09a9.71,9.71,0,0,0-2.69-4.87,7.33,7.33,0,0,0-5.29-1.88,8.24,8.24,0,0,0-3.27.64,7.27,7.27,0,0,0-3.74,3.43,8.2,8.2,0,0,0-.72,2.27,27,27,0,0,0-.36,3.35q-.11,2-.11,5t.11,5a27,27,0,0,0,.36,3.35,8.18,8.18,0,0,0,.72,2.27,7.28,7.28,0,0,0,3.74,3.43,8.24,8.24,0,0,0,3.27.64,7.42,7.42,0,0,0,5.32-1.88,9.62,9.62,0,0,0,2.71-4.87h6A16.44,16.44,0,0,1,1741.61,1024.9Z"/>
    <path class="cls-4" d="M1777.86,1016.9a28,28,0,0,1-.39,4.18,13.32,13.32,0,0,1-1.11,3.49,11.24,11.24,0,0,1-2.21,3,14.23,14.23,0,0,1-4.65,3.13,14.88,14.88,0,0,1-5.76,1.08,14.66,14.66,0,0,1-5.73-1.08,14.3,14.3,0,0,1-4.62-3.13,11.24,11.24,0,0,1-2.21-3,14,14,0,0,1-1.13-3.49,25.34,25.34,0,0,1-.42-4.18q-.06-2.3-.06-5.12t.06-5.12a25.37,25.37,0,0,1,.42-4.18,14,14,0,0,1,1.13-3.49,11.26,11.26,0,0,1,2.21-3,14.34,14.34,0,0,1,4.62-3.13,14.68,14.68,0,0,1,5.73-1.08,14.9,14.9,0,0,1,5.76,1.08,14.26,14.26,0,0,1,4.65,3.13,11.26,11.26,0,0,1,2.21,3,13.33,13.33,0,0,1,1.11,3.49,28.07,28.07,0,0,1,.39,4.18q.05,2.3.05,5.12T1777.86,1016.9Zm-6-10.08a24.42,24.42,0,0,0-.33-3.32,8.23,8.23,0,0,0-.72-2.27,7.63,7.63,0,0,0-1.19-1.69,7.82,7.82,0,0,0-2.57-1.77,8.49,8.49,0,0,0-6.59,0,7.8,7.8,0,0,0-2.57,1.77,7.55,7.55,0,0,0-1.19,1.69,8.23,8.23,0,0,0-.72,2.27,24.42,24.42,0,0,0-.33,3.32q-.08,2-.08,5t.08,5a24.4,24.4,0,0,0,.33,3.32,8.22,8.22,0,0,0,.72,2.27,7.52,7.52,0,0,0,1.19,1.69,7.79,7.79,0,0,0,2.57,1.77,8.51,8.51,0,0,0,6.59,0,7.81,7.81,0,0,0,2.57-1.77,7.6,7.6,0,0,0,1.19-1.69,8.22,8.22,0,0,0,.72-2.27,24.4,24.4,0,0,0,.33-3.32q.08-2,.08-5T1771.85,1006.82Z"/>
    <path class="cls-4" d="M1810,1031.49l-18.21-27.74v27.74h-6V992.07h5.48l18.21,27.68V992.07h6v39.42Z"/>
    <path class="cls-5" d="M1831.74,1031.49V998.21L1824,1005v-6.26l7.7-6.64h5.65v39.42Z"/>
    <path class="cls-5" d="M1870.06,1025.15a10.55,10.55,0,0,1-2.6,3.63,11.3,11.3,0,0,1-3.88,2.27,15,15,0,0,1-9.52,0,11,11,0,0,1-3.85-2.27,10.71,10.71,0,0,1-2.57-3.63,11.73,11.73,0,0,1-.94-4.79,10.28,10.28,0,0,1,.47-3.21,10.73,10.73,0,0,1,1.22-2.57,10,10,0,0,1,1.72-2,12.56,12.56,0,0,1,2-1.47,10.73,10.73,0,0,1-3.35-3.24,9.1,9.1,0,0,1-1.41-5.23,10.93,10.93,0,0,1,.89-4.48,10.39,10.39,0,0,1,2.44-3.43,10.84,10.84,0,0,1,3.63-2.21,13.44,13.44,0,0,1,9,0,11.12,11.12,0,0,1,3.68,2.21,10.2,10.2,0,0,1,2.46,3.43,10.93,10.93,0,0,1,.89,4.48,9.1,9.1,0,0,1-1.41,5.23,10.73,10.73,0,0,1-3.35,3.24,12.61,12.61,0,0,1,2,1.47,10,10,0,0,1,1.72,2,10.73,10.73,0,0,1,1.22,2.57,10.31,10.31,0,0,1,.47,3.21A11.73,11.73,0,0,1,1870.06,1025.15Zm-5.26-7.47a6.39,6.39,0,0,0-1.38-2.08,6.89,6.89,0,0,0-2-1.41,6.11,6.11,0,0,0-2.55-.53,6.3,6.3,0,0,0-2.57.53,6.45,6.45,0,0,0-2,1.41,6.72,6.72,0,0,0,0,9.3,6.07,6.07,0,0,0,2,1.38,6.6,6.6,0,0,0,2.57.5,6.41,6.41,0,0,0,6-4,6.89,6.89,0,0,0,0-5.15Zm-1.74-19.18a5.59,5.59,0,0,0-4.24-1.72,5.5,5.5,0,0,0-4.21,1.72,6.08,6.08,0,0,0-1.61,4.32,6,6,0,0,0,1.61,4.32,5.59,5.59,0,0,0,4.21,1.66,5.68,5.68,0,0,0,4.24-1.66,5.9,5.9,0,0,0,1.63-4.32A6,6,0,0,0,1863.06,998.49Z"/>
  </g>
  <ellipse class="cls-6" cx="1618.91" cy="291.92" rx="78.1" ry="77.97"/>
  <ellipse class="cls-7" cx="305.91" cy="735.92" rx="78.1" ry="77.97"/>
</svg>
