<?xml version="1.0" encoding="utf-8"?>
<!DOCTYPE svg PUBLIC "-//W3C//DTD SVG 1.1//EN" "http://www.w3.org/Graphics/SVG/1.1/DTD/svg11.dtd">
<svg xmlns="http://www.w3.org/2000/svg" viewBox="0 0 1440 900"  version="1.1"
   xmlns:xlink="http://www.w3.org/1999/xlink"
	 x="0px" y="0px" width="1440px" height="900px">
    <defs>
        <linearGradient id="linear-gradient-black-hole-back" x1="846.12" y1="708.59" x2="1401.45" y2="708.59"
            gradientTransform="translate(886.96 -598.66) rotate(47.5)" gradientUnits="userSpaceOnUse">
            <stop offset="0" />
            <stop offset="0.02" stop-color="#030303" />
            <stop offset="0.25" stop-color="#1d1b1b" />
            <stop offset="0.49" stop-color="#2f2c2c" />
            <stop offset="0.73" stop-color="#3a3736" />
            <stop offset="1" stop-color="#3e3a39" />
        </linearGradient>
        <linearGradient id="linear-gradient-core-lower" x1="808.21" y1="560.04" x2="907.14" y2="642.19" gradientUnits="userSpaceOnUse">
            <stop offset="0" stop-color="#231815" />
            <stop offset="0.33" stop-color="#261c19" />
            <stop offset="0.68" stop-color="#302927" />
            <stop offset="1" stop-color="#3e3a39" />
        </linearGradient>
        <linearGradient id="linear-gradient-core-upper" x1="667.32" y1="426.86" x2="785.38" y2="539.07" gradientUnits="userSpaceOnUse">
            <stop offset="0" stop-color="#3e3a39" />
            <stop offset="0.32" stop-color="#302927" />
            <stop offset="0.67" stop-color="#261c19" />
            <stop offset="1" stop-color="#231815" />
        </linearGradient>
        <linearGradient id="linear-gradient-ring-back-center" x1="954.66" y1="262.66" x2="807.9" y2="402.13"
            gradientUnits="userSpaceOnUse">
            <stop offset="0" stop-color="#b81c22" />
            <stop offset="0.38" stop-color="#b61c22" />
            <stop offset="0.6" stop-color="#ad1c22" />
            <stop offset="0.78" stop-color="#a01c22" />
            <stop offset="0.93" stop-color="#8c1c21" />
            <stop offset="1" stop-color="#801c21" />
        </linearGradient>
        <linearGradient id="linear-gradient-5" x1="511.54" y1="649.94" x2="648.75" y2="649.94" xlink:href="#linear-gradient-ring-back-center" />
        <linearGradient id="linear-gradient-black-hole-upper" x1="-39.97" y1="-89.6" x2="178.42" y2="88.52"
            gradientTransform="translate(43.34 -62.08) rotate(47.5)" gradientUnits="userSpaceOnUse">
            <stop offset="0" />
            <stop offset="0.23" stop-color="#111010" />
            <stop offset="0.73" stop-color="#322e2e" />
            <stop offset="1" stop-color="#3e3a39" />
        </linearGradient>
    </defs>
    <title>g0v summit 2018</title>
    <g>
        <g ref="shooting-star-13" data-duration="1.3">
            <rect x="103.36" y="595.39" width="1462.3" height="25.42" style="fill:#ecd92f;opacity:0.5" />
            <circle cx="105.17" cy="608.1" r="12.71" style="fill:#c22c1f" />
        </g>

        <g ref="shooting-star-14" data-duration="1.2">
            <rect x="227.21" y="614.45" width="1251.01" height="19.7" style="fill:#d2bcda" />
            <circle cx="228.62" cy="624.29" r="9.85" style="fill:#0a6d9f" />
        </g>

        <!-- 下方黑洞 後 -->
        <ellipse ref="fade-in-0" data-delay="0.5" cx="1123.78" cy="708.59" rx="401.55" ry="79.85" transform="translate(-157.87 1058.38) rotate(-47.5)"
            style="fill:url(#linear-gradient-black-hole-back)" />
        <path ref="fade-in-1" style="fill:#e55760" d="M851.94,993.7c4.15-14.29,16.76-44.12,54.77-99.8,41.83-61.28,101.55-134.68,168.16-206.69C1140.69,616.06,1208.57,551.36,1266,505c52.62-42.47,81.82-57.9,96.26-63.52l39.65-42.93c-5.15-4.65-14.09-10-27.89-10-16,0-35.67,7.15-61.77,22.5-22.07,13-48.14,31.57-77.5,55.26-59.24,47.8-129,114.26-196.4,187.12-75.12,81.2-140.5,162.68-184.09,229.43-21.8,33.38-37.2,61.66-45.76,84-4.55,11.89-18.38,48.07,4.33,69.08l0.21,0.19,39.41-42.67Z" />

        <g ref="shooting-star-8" data-duration="0.7">
            <g style="opacity:0.8">
                <rect x="611.57" y="306.9" width="1055.19" height="31.87" style="fill:#ecd92f;opacity:0.5" />
                <rect x="611.57" y="338.77" width="1055.19" height="16.74" style="fill:#eb6721;opacity:0.5" />
            </g>
            <circle cx="615.05" cy="331.2" r="24.3" style="fill:#d65128" />
        </g>
        <g ref="shooting-star-4" data-duration="0.8">
            <rect x="710.31" y="142.77" width="965.23" height="31.79" style="fill:#d2bcda" />
            <circle cx="712.58" cy="158.66" r="15.89" style="fill:#805ca3" />
        </g>

        <!-- core 下半 -->
        <path ref="fade-in-2" style="fill:url(#linear-gradient-core-lower)" d="M875.29,537.29a91.38,91.38,0,0,1-113.55,88.62c-16.22,16.07-32.31,31.37-48,45.6a150.55,150.55,0,0,0,70.16,17.26c83.53,0,151.49-68,151.49-151.49a150.59,150.59,0,0,0-23.57-81.07c-12.66,16.67-26.54,34-41.4,51.71A91,91,0,0,1,875.29,537.29Z" />

        <!-- ring 後中 -->
        <path ref="fade-in-3" fill="#871c21" d="M793.6,446.44a91.38,91.38,0,0,0-99.89,105.18c12.65-14.5,25.86-29.13,39.46-43.69C753.29,486.42,773.65,465.72,793.6,446.44Z" />

        <g ref="shooting-star-12" data-duration="1.3">
            <rect x="461.86" y="500.36" width="1142.2" height="61.27" style="fill:#ecd92f;opacity:0.5" />
            <rect x="465.88" y="524.94" width="1147.26" height="15.14" style="fill:#e98017;opacity:0.5" />
            <circle cx="466.24" cy="530.99" r="30.63" style="fill:#e2d324" />
        </g>

        <!-- core 上半 -->
        <path ref="fade-in-4" transform="translate(2 2)" fill="url(#linear-gradient-core-upper)" d="M845.42,398.85a150.59,150.59,0,0,0-61.48-13.05c-3.13,0-6.23.11-9.3,0.29C696,390.88,633.34,456,632.48,535.61c0,0.56,0,1.11,0,1.67a150.55,150.55,0,0,0,16.3,68.3,152.13,152.13,0,0,0,20,30c14.28-12.8,29-26.6,43.94-41.17A91.31,91.31,0,0,1,835,461.56c13.41-16.27,25.9-32.15,37.2-47.32A151.51,151.51,0,0,0,845.42,398.85Z" />

        <!-- core 後方白光 -->
        <path ref="fade-in-5" fill="#fff" transform="translate(1 1)" d="M872.2,414.24l-4.14-2.68-2.26-1.46-2.8-1.62c-2-1.16-4.31-2.53-7-3.86-1.33-.68-2.72-1.43-4.21-2.15l-4.72-2.14c-0.82-.36-1.66-0.79-2.51-1.1l-2.68-1.05c-1.82-.69-3.69-1.52-5.67-2.13a150.4,150.4,0,0,0-27-6.78c-1.25-.25-2.54-0.38-3.83-0.53l-3.91-.47c-1.31-.19-2.65-0.26-4-0.35l-4.08-.27c-1.37-.12-2.76-0.1-4.15-0.13l-4.22-.07-1.06,0-1,0-2.17.09-4.39.18-1.11,0-0.55,0-0.46,0-2.22.21-4.49.43-4.44.64c-1.49.21-3,.41-4.48,0.73l-4.53.88c-1.52.29-3,.7-4.53,1.05-3,.66-6.05,1.62-9.1,2.49a148.59,148.59,0,0,0-18,6.94l-2.23,1L718,403.34c-1.46.75-2.94,1.47-4.39,2.26-2.87,1.63-5.79,3.2-8.57,5s-5.56,3.69-8.32,5.58c-2.65,2-5.39,4-7.93,6.21s-5.08,4.43-7.57,6.71c-1.22,1.16-2.39,2.39-3.59,3.58-0.59.6-1.2,1.19-1.78,1.8l-1.7,1.88a150.25,150.25,0,0,0-23.09,32.94l-2.24,4.45-2,4.53c-0.71,1.49-1.3,3-1.9,4.55s-1.24,3-1.77,4.58c-1.05,3.09-2.15,6.14-3,9.26s-1.64,6.21-2.39,9.29c-0.38,1.54-.61,3.11-0.92,4.65s-0.63,3.08-.81,4.63c-0.42,3.09-.9,6.14-1.13,9.19-0.13,1.52-.32,3-0.39,4.54l-0.2,4.51-0.1,2.23,0,1.13v0.42a0.5,0.5,0,0,0,0,.08v0.56q0,2.24.09,4.45c0,1.47,0,2.95.11,4.38l0.34,4.24,0.33,4.18,0.56,4.11,0.55,4c0.18,1.34.5,2.64,0.74,3.94,0.54,2.6.94,5.18,1.65,7.63l0.95,3.67c0.33,1.21.59,2.42,1,3.57l2.19,6.82c1.64,4.35,3.13,8.53,4.92,12.28l1.26,2.8c0.21,0.45.41,0.94,0.61,1.34l0.68,1.31,2.61,5c0.8,1.63,1.74,3.07,2.58,4.49l2.43,4c3.3,5,5.93,8.91,8,11.4l3,3.92-3.19-3.76a139.31,139.31,0,0,1-8.5-11.07l-2.6-4c-0.9-1.4-1.91-2.84-2.76-4.43l-2.8-4.9-0.73-1.28c-0.26-.48-0.46-0.91-0.69-1.37L646.11,602c-2-3.73-3.62-7.89-5.45-12.25l-2.43-6.85c-0.44-1.16-.74-2.38-1.11-3.6l-1.07-3.7c-0.79-2.48-1.26-5.09-1.88-7.72-0.28-1.32-.64-2.64-0.86-4l-0.67-4.11L632,555.56l-0.43-4.31-0.43-4.38c-0.1-1.46-.13-2.92-0.2-4.39a150.56,150.56,0,0,1,3-37.32c0.72-3.18,1.39-6.4,2.34-9.57s1.91-6.36,3-9.55a146.48,146.48,0,0,1,8-18.7,149.37,149.37,0,0,1,10.63-17.73,147.3,147.3,0,0,1,13-16.28l1.76-1.93c0.6-.63,1.23-1.23,1.84-1.85,1.24-1.22,2.45-2.48,3.71-3.67,2.57-2.34,5.11-4.71,7.82-6.88s5.45-4.27,8.19-6.37c2.85-1.94,5.64-4,8.59-5.71s5.88-3.48,8.85-5.13c1.5-.8,3-1.52,4.54-2.28l2.27-1.12,2.31-1a152.73,152.73,0,0,1,18.6-6.92c3.14-.86,6.24-1.8,9.37-2.45,1.56-.34,3.1-0.75,4.67-1l4.66-.81c1.54-.3,3.1-0.48,4.64-0.67l4.61-.57,4.5-.34,2.23-.17,0.65,0h0.55l1.11,0a148,148,0,0,1,33.38,2.35,140.83,140.83,0,0,1,27.17,7.78c2,0.7,3.81,1.58,5.61,2.35l2.64,1.15c0.9,0.37,1.69.82,2.51,1.22l4.67,2.33c1.47,0.78,2.84,1.59,4.15,2.32s2.57,1.41,3.7,2.14l3.17,2,2.72,1.76,2.19,1.57Z" />

        <!-- ring 後上 -->
        <path ref="fade-in-6" style="fill:url(#linear-gradient-ring-back-center)" transform="translate(1 1)" d="M976.08,281.43c-5.1-4.67-14.06-10.24-27.76-10.24s-30,5.69-51,17.92c-16.84,9.8-36.64,23.77-58.85,41.51-20,16-41.57,34.74-63.86,55.47,3.08-.19,6.18-0.29,9.3-0.29a150.62,150.62,0,0,1,61.48,13c9.91-8.6,19.55-16.65,28.82-24.05,19.42-15.51,34.3-25.91,45.49-32.88-0.56,1.05-1.16,2.15-1.77,3.26l59.13-62.77C976.76,282.08,976.43,281.75,976.08,281.43Z" />

        <!-- ring 後下 -->
        <path ref="fade-in-7" fill="url(#linear-gradient-5)" transform="translate(1 1)" d="M609.05,658.95c11.52-16.71,24.9-34.67,39.7-53.36a150.55,150.55,0,0,1-16.3-68.3c0-.56,0-1.12,0-1.67-31.31,37.12-58.42,72.72-79.05,104-16.61,25.18-28.39,46.64-35,63.79-1.82,4.72-5.61,14.53-6.62,25.61-1.32,14.46,2.63,26.61,11.41,35.26l59.15-62.79A500,500,0,0,1,609.05,658.95Z" />

        <g ref="shooting-star-9" data-duration="1.5">
            <rect x="676.61" y="366.76" width="1500" height="13.65" style="fill:#496090" />
            <circle cx="677.58" cy="373.58" r="6.82" style="fill:#8fd1df" />
        </g>

        <!-- ring 前 -->
        <path ref="fade-in-8" fill="#b91c22" d="M977.09,282.41L918,345.18a500.33,500.33,0,0,1-26.72,42.55q-8.83,12.8-19,26.51c-11.31,15.17-23.8,31.05-37.2,47.32-20.75,25.18-43.69,51.29-67.88,77.18-18.09,19.36-36.39,38.07-54.42,55.66C697.78,609,683,622.78,668.77,635.57c-14.83,13.29-29.17,25.49-42.71,36.31-19.41,15.51-34.31,25.91-45.49,32.88,0.57-1.06,1.17-2.17,1.79-3.3L523.2,764.26c0.34,0.33.67,0.67,1,1,5.1,4.67,14.05,10.24,27.76,10.24s30-5.7,51-17.92c16.83-9.8,36.63-23.77,58.85-41.52,16.42-13.11,33.91-28.12,52-44.54,15.66-14.23,31.75-29.53,48-45.6,15.71-15.57,31.53-31.86,47.18-48.6,21.77-23.3,42.45-46.64,61.53-69.37,14.86-17.71,28.74-35,41.4-51.71,13.07-17.21,24.83-33.7,35-49.14,16.61-25.18,28.39-46.64,35-63.78,1.82-4.72,5.61-14.53,6.63-25.61C989.83,303.21,985.88,291.06,977.09,282.41Z" />

        <g ref="shooting-star-7" data-duration="0.8">
            <rect x="551.85" y="254.76" width="1271.93" height="13.65" style="fill:#abd5a4" />
            <circle cx="552.83" cy="261.58" r="6.83" style="fill:#2f9239" />
        </g>

        <g ref="shooting-star-15" data-duration="1">
            <rect x="480.86" y="678.84" width="1207.24" height="27.9" style="fill:#addce7" />
            <circle cx="482.85" cy="692.79" r="13.95" style="fill:#5dafc4" />
        </g>

        <g ref="shooting-star-16" data-duration="0.8">
            <rect x="616.75" y="699.75" width="975.41" height="21.61" style="fill:#5dafc4" />
            <circle cx="618.29" cy="710.56" r="10.81" style="fill:#0a6d9f" />
        </g>

        <g ref="shooting-star-5-6" data-duration="1.3">
            <rect x="625.46" y="209.38" width="1154.43" height="31.78" style="fill:#f3c98e" />
            <rect x="509.47" y="227.51" width="1271.93" height="13.65" style="fill:#ea9393" />
            <circle cx="511.02" cy="234.34" r="6.82" style="fill:#c22c1f" />
            <circle cx="627.74" cy="225.27" r="15.89" style="fill:#d65128" />
        </g>

        <g ref="shooting-star-19" data-duration="1.3">
            <rect x="772.46" y="794.93" width="1055.59" height="16.02" style="fill:#abd5a4" />
            <circle cx="773.6" cy="802.94" r="8.01" style="fill:#2f9239" />
        </g>

        <g ref="shooting-star-17-18" data-duration="0.8">
            <rect x="858.86" y="741.67" width="917.65" height="37.31" style="fill:#abd5a4" />
            <rect x="722.71" y="762.95" width="1055.59" height="16.03" style="fill:#496090" />
            <circle cx="723.85" cy="770.96" r="8.01" style="fill:#5dafc4" />
            <circle cx="861.53" cy="760.32" r="18.66" style="fill:#5dafc4" />
        </g>

        <g ref="shooting-star-10" data-duration="1.2">
            <rect x="885.58" y="443" width="876.75" height="24" style="fill:#addce7" />
            <circle cx="887.28" cy="455" r="12" style="fill:#5dafc4" />
        </g>

        <g ref="shooting-star-11" data-duration="1">
            <rect x="1041.34" y="460.05" width="679.25" height="18.41" style="fill:#5dafc4" />
            <circle cx="1042.66" cy="469.26" r="9.21" style="fill:#0a6d9f" />
        </g>

        <g ref="shooting-star-1-2" data-duration="0.5" data-delay="0.5">
            <rect x="1002.41" y="64.08" width="781.74" height="31.78" style="fill:#abd5a4" />
            <rect x="886.42" y="82.21" width="899.25" height="13.65" style="fill:#496090" />
            <circle cx="887.39" cy="89.04" r="6.83" style="fill:#5dafc4" />
            <circle cx="1004.68" cy="79.97" r="15.89" style="fill:#5dafc4" />
        </g>

        <g ref="shooting-star-3" data-duration="1">
            <rect x="928.8" y="109.46" width="899.25" height="13.65" style="fill:#abd5a4" />
            <circle cx="929.77" cy="116.28" r="6.83" style="fill:#2f9239" />
        </g>

        <g ref="fade-in-9">
            <!-- 下黑洞 外圍 -->
            <path fill="#e55760" transform="translate(-1 -1)" d="M1402.25,398.87l-0.34-.3-39.65,42.93,0.87-.34c-4.15,14.29-16.77,44.12-54.76,99.79-41.83,61.28-101.55,134.69-168.16,206.69-65.82,71.15-133.7,135.85-191.12,182.19C896,972.69,866.72,988,852.45,993.5L813,1036.17c5.13,4.67,14.1,10.14,28,10.14,16,0,35.67-7.15,61.77-22.5,22.07-13,48.14-31.57,77.5-55.26,59.24-47.81,129-114.26,196.4-187.12,75.13-81.2,140.5-162.68,184.1-229.43,21.8-33.38,37.2-61.66,45.76-84C1411.13,456.07,1425,419.88,1402.25,398.87Z" />
            <path fill="#dae0d1" d="M1362.25,441.51l0.87-.36,0,0v0l-1.71,5.7c-0.62,1.88-1.33,3.74-2,5.61l-1,2.8-1.15,2.75-2.29,5.5c-1.61,3.63-3.37,7.2-5,10.8-0.82,1.81-1.78,3.55-2.68,5.32l-2.75,5.29c-0.93,1.76-1.8,3.55-2.78,5.28l-2.93,5.19c-2,3.45-3.88,6.94-5.91,10.36l-6.17,10.2c-2.06,3.4-4.1,6.81-6.28,10.13l-6.47,10-3.24,5c-1.1,1.72-2.23,3.3-3.35,5L1294,565.72c-9.27,12.91-18.53,25.87-28.19,38.46-9.46,12.77-19.42,25.14-29.25,37.63l-15.08,18.44-7.55,9.21-7.7,9.09-15.45,18.14L1175,714.59l-7.88,8.94-8,8.82-16,17.64-16.33,17.33-8.16,8.65-8.3,8.56-16.62,17.1-16.88,16.82-8.47,8.38-8.6,8.25-17.22,16.47-17.48,16.19c-5.8,5.43-11.81,10.63-17.74,15.91s-11.85,10.58-17.94,15.68-12.06,10.34-18.2,15.39l-18.55,15-2.34,1.88-2.36,1.81L943.21,937l-9.44,7.23-2.37,1.8L929,947.77l-4.84,3.49-9.68,7-9.87,6.69-4.94,3.34-5.05,3.17c-13.41,8.49-27.29,16.47-42.15,22.07l5.42-2.43c1.79-.85,3.53-1.8,5.3-2.69l2.64-1.36,2.58-1.48,5.14-3c1.73-1,3.38-2.06,5.06-3.1l5-3.16c0.83-.53,1.68-1,2.5-1.59l2.45-1.67,4.9-3.34,4.9-3.34,4.8-3.49,9.6-7,9.39-7.24,4.69-3.62,2.34-1.81,2.31-1.88,9.25-7.48,4.63-3.74,2.31-1.87,2.24-1.9L968,911c11.86-10.49,23.83-20.84,35.39-31.66,11.73-10.63,23.09-21.66,34.62-32.51l17-16.6,8.48-8.31,8.35-8.45,16.73-16.86L1105,779.5l8.23-8.55,8.13-8.68,16.23-17.35,16-17.53,8-8.76,7.88-8.88L1185.32,692l15.51-18,7.77-9,7.63-9.1,15.24-18.22,14.93-18.46c5-6.1,9.89-12.36,14.77-18.59l7.32-9.35c1.21-1.56,2.46-3.11,3.65-4.68l3.56-4.74,14.27-19,13.91-19.3c1.14-1.61,2.36-3.22,3.44-4.82l3.35-4.9,6.7-9.8c2.28-3.24,4.42-6.56,6.57-9.88l6.47-10c2.13-3.34,4.13-6.74,6.21-10.11l3.09-5.07c1-1.68,2-3.43,3-5.14l2.94-5.16c1-1.73,2-3.42,2.88-5.19,1.81-3.52,3.7-7,5.44-10.55l2.54-5.37,1.27-2.68,1.15-2.74c0.75-1.83,1.54-3.65,2.25-5.5l2-5.61,0,0Z" />
        </g>

        <!-- 文字 -->
        <g ref="fade-in-10" data-delay="0.5">
        </g>
    </g>
</svg>